<mxfile host="www.draw.io" modified="2020-02-25T16:44:54.456Z" agent="Mozilla/5.0 (Macintosh; Intel Mac OS X 10_13_6) AppleWebKit/605.1.15 (KHTML, like Gecko) Version/12.1.2 Safari/605.1.15" etag="-HAYVhWk4oHqaSLmXzil" version="12.7.5" type="github">
  <diagram id="PJwpbGThgnPprq-mngd7" name="Page-1">
    <mxGraphModel dx="1186" dy="1912" grid="1" gridSize="10" guides="1" tooltips="1" connect="1" arrows="1" fold="1" page="1" pageScale="1" pageWidth="850" pageHeight="1100" math="0" shadow="0">
      <root>
        <mxCell id="0" />
        <mxCell id="1" parent="0" />
        <mxCell id="WW5zxsLWMflbh4osE3HO-2" style="edgeStyle=orthogonalEdgeStyle;rounded=0;orthogonalLoop=1;jettySize=auto;html=1;exitX=1;exitY=0.5;exitDx=0;exitDy=0;entryX=0;entryY=0.5;entryDx=0;entryDy=0;" edge="1" parent="1" source="WW5zxsLWMflbh4osE3HO-3" target="WW5zxsLWMflbh4osE3HO-6">
          <mxGeometry relative="1" as="geometry" />
        </mxCell>
        <mxCell id="WW5zxsLWMflbh4osE3HO-3" value="&lt;font style=&quot;font-size: 16px&quot;&gt;reg_dl_download&lt;/font&gt;" style="rounded=0;whiteSpace=wrap;html=1;" vertex="1" parent="1">
          <mxGeometry x="90" y="170" width="170" height="60" as="geometry" />
        </mxCell>
        <mxCell id="WW5zxsLWMflbh4osE3HO-4" value="&lt;span style=&quot;color: rgb(36 , 41 , 46) ; font-size: 10px&quot;&gt;&lt;font style=&quot;font-size: 10px&quot;&gt;raw file: /bb/beps/data/reg_dl_download/20200214_123333/*.dl&lt;br&gt;&lt;div&gt;&lt;span style=&quot;box-sizing: border-box&quot;&gt;parsekey for each product and group combination: /bb/beps/data/reg_dl_download/&lt;/span&gt;.txt&lt;/div&gt;&lt;/font&gt;&lt;/span&gt;" style="text;html=1;strokeColor=none;fillColor=none;align=left;verticalAlign=middle;whiteSpace=wrap;rounded=0;" vertex="1" parent="1">
          <mxGeometry x="90" y="230" width="290" height="50" as="geometry" />
        </mxCell>
        <mxCell id="WW5zxsLWMflbh4osE3HO-5" style="edgeStyle=orthogonalEdgeStyle;rounded=0;orthogonalLoop=1;jettySize=auto;html=1;exitX=1;exitY=0.5;exitDx=0;exitDy=0;entryX=0;entryY=0.5;entryDx=0;entryDy=0;" edge="1" parent="1" source="WW5zxsLWMflbh4osE3HO-6" target="WW5zxsLWMflbh4osE3HO-10">
          <mxGeometry relative="1" as="geometry" />
        </mxCell>
        <mxCell id="WW5zxsLWMflbh4osE3HO-6" value="reg_xlate_ids" style="rounded=0;whiteSpace=wrap;html=1;" vertex="1" parent="1">
          <mxGeometry x="425" y="170" width="120" height="60" as="geometry" />
        </mxCell>
        <mxCell id="WW5zxsLWMflbh4osE3HO-7" value="&lt;font color=&quot;#24292e&quot; size=&quot;1&quot;&gt;id135 for each product and group combination:&amp;nbsp;&lt;br&gt;/bb/beps/data/frtbsa_mtge_list_id135.txt&lt;br&gt;&lt;/font&gt;" style="text;html=1;strokeColor=none;fillColor=none;align=left;verticalAlign=middle;whiteSpace=wrap;rounded=0;" vertex="1" parent="1">
          <mxGeometry x="410" y="230" width="230" height="40" as="geometry" />
        </mxCell>
        <mxCell id="WW5zxsLWMflbh4osE3HO-8" value="frtbsa_mtge_list_id135.txt" style="swimlane;fontStyle=0;childLayout=stackLayout;horizontal=1;startSize=26;fillColor=none;horizontalStack=0;resizeParent=1;resizeParentMax=0;resizeLast=0;collapsible=1;marginBottom=0;" vertex="1" parent="1">
          <mxGeometry x="640" y="135" width="170" height="130" as="geometry" />
        </mxCell>
        <mxCell id="WW5zxsLWMflbh4osE3HO-9" value="ID1" style="text;strokeColor=none;fillColor=none;align=left;verticalAlign=top;spacingLeft=4;spacingRight=4;overflow=hidden;rotatable=0;points=[[0,0.5],[1,0.5]];portConstraint=eastwest;" vertex="1" parent="WW5zxsLWMflbh4osE3HO-8">
          <mxGeometry y="26" width="170" height="26" as="geometry" />
        </mxCell>
        <mxCell id="WW5zxsLWMflbh4osE3HO-10" value="ID2" style="text;strokeColor=none;fillColor=none;align=left;verticalAlign=top;spacingLeft=4;spacingRight=4;overflow=hidden;rotatable=0;points=[[0,0.5],[1,0.5]];portConstraint=eastwest;" vertex="1" parent="WW5zxsLWMflbh4osE3HO-8">
          <mxGeometry y="52" width="170" height="26" as="geometry" />
        </mxCell>
        <mxCell id="WW5zxsLWMflbh4osE3HO-11" value="ID3" style="text;strokeColor=none;fillColor=none;align=left;verticalAlign=top;spacingLeft=4;spacingRight=4;overflow=hidden;rotatable=0;points=[[0,0.5],[1,0.5]];portConstraint=eastwest;" vertex="1" parent="WW5zxsLWMflbh4osE3HO-8">
          <mxGeometry y="78" width="170" height="26" as="geometry" />
        </mxCell>
        <mxCell id="WW5zxsLWMflbh4osE3HO-12" value="..." style="text;strokeColor=none;fillColor=none;align=left;verticalAlign=top;spacingLeft=4;spacingRight=4;overflow=hidden;rotatable=0;points=[[0,0.5],[1,0.5]];portConstraint=eastwest;" vertex="1" parent="WW5zxsLWMflbh4osE3HO-8">
          <mxGeometry y="104" width="170" height="26" as="geometry" />
        </mxCell>
        <mxCell id="WW5zxsLWMflbh4osE3HO-13" value="one slice" style="swimlane;fontStyle=0;childLayout=stackLayout;horizontal=1;startSize=26;fillColor=none;horizontalStack=0;resizeParent=1;resizeParentMax=0;resizeLast=0;collapsible=1;marginBottom=0;" vertex="1" parent="1">
          <mxGeometry x="1020" y="-25" width="140" height="130" as="geometry" />
        </mxCell>
        <mxCell id="WW5zxsLWMflbh4osE3HO-14" value="ID1" style="text;strokeColor=none;fillColor=none;align=left;verticalAlign=top;spacingLeft=4;spacingRight=4;overflow=hidden;rotatable=0;points=[[0,0.5],[1,0.5]];portConstraint=eastwest;" vertex="1" parent="WW5zxsLWMflbh4osE3HO-13">
          <mxGeometry y="26" width="140" height="26" as="geometry" />
        </mxCell>
        <mxCell id="WW5zxsLWMflbh4osE3HO-15" value="ID2" style="text;strokeColor=none;fillColor=none;align=left;verticalAlign=top;spacingLeft=4;spacingRight=4;overflow=hidden;rotatable=0;points=[[0,0.5],[1,0.5]];portConstraint=eastwest;" vertex="1" parent="WW5zxsLWMflbh4osE3HO-13">
          <mxGeometry y="52" width="140" height="26" as="geometry" />
        </mxCell>
        <mxCell id="WW5zxsLWMflbh4osE3HO-16" value="..." style="text;strokeColor=none;fillColor=none;align=left;verticalAlign=top;spacingLeft=4;spacingRight=4;overflow=hidden;rotatable=0;points=[[0,0.5],[1,0.5]];portConstraint=eastwest;" vertex="1" parent="WW5zxsLWMflbh4osE3HO-13">
          <mxGeometry y="78" width="140" height="26" as="geometry" />
        </mxCell>
        <mxCell id="WW5zxsLWMflbh4osE3HO-17" value="ID10000" style="text;strokeColor=none;fillColor=none;align=left;verticalAlign=top;spacingLeft=4;spacingRight=4;overflow=hidden;rotatable=0;points=[[0,0.5],[1,0.5]];portConstraint=eastwest;" vertex="1" parent="WW5zxsLWMflbh4osE3HO-13">
          <mxGeometry y="104" width="140" height="26" as="geometry" />
        </mxCell>
        <mxCell id="WW5zxsLWMflbh4osE3HO-18" value="one slice" style="swimlane;fontStyle=0;childLayout=stackLayout;horizontal=1;startSize=26;fillColor=none;horizontalStack=0;resizeParent=1;resizeParentMax=0;resizeLast=0;collapsible=1;marginBottom=0;" vertex="1" parent="1">
          <mxGeometry x="1020" y="135" width="140" height="130" as="geometry" />
        </mxCell>
        <mxCell id="WW5zxsLWMflbh4osE3HO-19" value="ID1" style="text;strokeColor=none;fillColor=none;align=left;verticalAlign=top;spacingLeft=4;spacingRight=4;overflow=hidden;rotatable=0;points=[[0,0.5],[1,0.5]];portConstraint=eastwest;" vertex="1" parent="WW5zxsLWMflbh4osE3HO-18">
          <mxGeometry y="26" width="140" height="26" as="geometry" />
        </mxCell>
        <mxCell id="WW5zxsLWMflbh4osE3HO-20" value="ID2" style="text;strokeColor=none;fillColor=none;align=left;verticalAlign=top;spacingLeft=4;spacingRight=4;overflow=hidden;rotatable=0;points=[[0,0.5],[1,0.5]];portConstraint=eastwest;" vertex="1" parent="WW5zxsLWMflbh4osE3HO-18">
          <mxGeometry y="52" width="140" height="26" as="geometry" />
        </mxCell>
        <mxCell id="WW5zxsLWMflbh4osE3HO-21" value="..." style="text;strokeColor=none;fillColor=none;align=left;verticalAlign=top;spacingLeft=4;spacingRight=4;overflow=hidden;rotatable=0;points=[[0,0.5],[1,0.5]];portConstraint=eastwest;" vertex="1" parent="WW5zxsLWMflbh4osE3HO-18">
          <mxGeometry y="78" width="140" height="26" as="geometry" />
        </mxCell>
        <mxCell id="WW5zxsLWMflbh4osE3HO-22" value="ID10000" style="text;strokeColor=none;fillColor=none;align=left;verticalAlign=top;spacingLeft=4;spacingRight=4;overflow=hidden;rotatable=0;points=[[0,0.5],[1,0.5]];portConstraint=eastwest;" vertex="1" parent="WW5zxsLWMflbh4osE3HO-18">
          <mxGeometry y="104" width="140" height="26" as="geometry" />
        </mxCell>
        <mxCell id="WW5zxsLWMflbh4osE3HO-23" value="&lt;font style=&quot;font-size: 29px&quot;&gt;...&lt;/font&gt;" style="text;html=1;strokeColor=none;fillColor=none;align=center;verticalAlign=middle;whiteSpace=wrap;rounded=0;" vertex="1" parent="1">
          <mxGeometry x="1020" y="295" width="40" height="20" as="geometry" />
        </mxCell>
        <mxCell id="WW5zxsLWMflbh4osE3HO-24" value="one slice" style="swimlane;fontStyle=0;childLayout=stackLayout;horizontal=1;startSize=26;fillColor=none;horizontalStack=0;resizeParent=1;resizeParentMax=0;resizeLast=0;collapsible=1;marginBottom=0;" vertex="1" parent="1">
          <mxGeometry x="1020" y="345" width="140" height="130" as="geometry" />
        </mxCell>
        <mxCell id="WW5zxsLWMflbh4osE3HO-25" value="ID1" style="text;strokeColor=none;fillColor=none;align=left;verticalAlign=top;spacingLeft=4;spacingRight=4;overflow=hidden;rotatable=0;points=[[0,0.5],[1,0.5]];portConstraint=eastwest;" vertex="1" parent="WW5zxsLWMflbh4osE3HO-24">
          <mxGeometry y="26" width="140" height="26" as="geometry" />
        </mxCell>
        <mxCell id="WW5zxsLWMflbh4osE3HO-26" value="ID2" style="text;strokeColor=none;fillColor=none;align=left;verticalAlign=top;spacingLeft=4;spacingRight=4;overflow=hidden;rotatable=0;points=[[0,0.5],[1,0.5]];portConstraint=eastwest;" vertex="1" parent="WW5zxsLWMflbh4osE3HO-24">
          <mxGeometry y="52" width="140" height="26" as="geometry" />
        </mxCell>
        <mxCell id="WW5zxsLWMflbh4osE3HO-27" value="..." style="text;strokeColor=none;fillColor=none;align=left;verticalAlign=top;spacingLeft=4;spacingRight=4;overflow=hidden;rotatable=0;points=[[0,0.5],[1,0.5]];portConstraint=eastwest;" vertex="1" parent="WW5zxsLWMflbh4osE3HO-24">
          <mxGeometry y="78" width="140" height="26" as="geometry" />
        </mxCell>
        <mxCell id="WW5zxsLWMflbh4osE3HO-28" value="ID10000" style="text;strokeColor=none;fillColor=none;align=left;verticalAlign=top;spacingLeft=4;spacingRight=4;overflow=hidden;rotatable=0;points=[[0,0.5],[1,0.5]];portConstraint=eastwest;" vertex="1" parent="WW5zxsLWMflbh4osE3HO-24">
          <mxGeometry y="104" width="140" height="26" as="geometry" />
        </mxCell>
        <mxCell id="WW5zxsLWMflbh4osE3HO-29" value="&lt;font color=&quot;#24292e&quot; size=&quot;1&quot;&gt;slice loc: /bb/beps/tmp/frtbsa_mtge_list_20200214.*.94.txt&lt;br&gt;&lt;/font&gt;" style="text;html=1;strokeColor=none;fillColor=none;align=left;verticalAlign=middle;whiteSpace=wrap;rounded=0;labelBackgroundColor=none;" vertex="1" parent="1">
          <mxGeometry x="1000" y="-75" width="220" height="40" as="geometry" />
        </mxCell>
        <mxCell id="WW5zxsLWMflbh4osE3HO-30" value="&lt;font color=&quot;#24292e&quot; size=&quot;1&quot;&gt;&lt;span style=&quot;&quot;&gt;Distributed Scheduler&lt;br&gt;&lt;/span&gt;&lt;/font&gt;" style="text;html=1;strokeColor=none;fillColor=none;align=left;verticalAlign=middle;whiteSpace=wrap;rounded=0;labelBackgroundColor=none;" vertex="1" parent="1">
          <mxGeometry x="830" y="185" width="50" height="25" as="geometry" />
        </mxCell>
        <mxCell id="WW5zxsLWMflbh4osE3HO-31" style="edgeStyle=orthogonalEdgeStyle;rounded=0;orthogonalLoop=1;jettySize=auto;html=1;exitX=1;exitY=0.5;exitDx=0;exitDy=0;" edge="1" parent="1" source="WW5zxsLWMflbh4osE3HO-10" target="WW5zxsLWMflbh4osE3HO-20">
          <mxGeometry relative="1" as="geometry" />
        </mxCell>
        <mxCell id="WW5zxsLWMflbh4osE3HO-32" style="edgeStyle=orthogonalEdgeStyle;rounded=0;orthogonalLoop=1;jettySize=auto;html=1;exitX=1;exitY=0.5;exitDx=0;exitDy=0;entryX=0;entryY=0.5;entryDx=0;entryDy=0;" edge="1" parent="1" source="WW5zxsLWMflbh4osE3HO-10" target="WW5zxsLWMflbh4osE3HO-15">
          <mxGeometry relative="1" as="geometry" />
        </mxCell>
        <mxCell id="WW5zxsLWMflbh4osE3HO-33" style="edgeStyle=orthogonalEdgeStyle;rounded=0;orthogonalLoop=1;jettySize=auto;html=1;exitX=1;exitY=0.5;exitDx=0;exitDy=0;entryX=0;entryY=0.5;entryDx=0;entryDy=0;" edge="1" parent="1" source="WW5zxsLWMflbh4osE3HO-10" target="WW5zxsLWMflbh4osE3HO-26">
          <mxGeometry relative="1" as="geometry" />
        </mxCell>
        <mxCell id="WW5zxsLWMflbh4osE3HO-34" style="edgeStyle=orthogonalEdgeStyle;rounded=0;orthogonalLoop=1;jettySize=auto;html=1;exitX=1;exitY=0.5;exitDx=0;exitDy=0;" edge="1" parent="1" source="WW5zxsLWMflbh4osE3HO-35" target="WW5zxsLWMflbh4osE3HO-37">
          <mxGeometry relative="1" as="geometry" />
        </mxCell>
        <mxCell id="WW5zxsLWMflbh4osE3HO-35" value="reg_generic _daily.sh" style="rounded=0;whiteSpace=wrap;html=1;" vertex="1" parent="1">
          <mxGeometry x="1240" y="10" width="120" height="60" as="geometry" />
        </mxCell>
        <mxCell id="WW5zxsLWMflbh4osE3HO-36" style="edgeStyle=orthogonalEdgeStyle;rounded=0;orthogonalLoop=1;jettySize=auto;html=1;exitX=1;exitY=0.5;exitDx=0;exitDy=0;entryX=0;entryY=0.5;entryDx=0;entryDy=0;" edge="1" parent="1" source="WW5zxsLWMflbh4osE3HO-15" target="WW5zxsLWMflbh4osE3HO-35">
          <mxGeometry relative="1" as="geometry" />
        </mxCell>
        <mxCell id="WW5zxsLWMflbh4osE3HO-37" value="" style="pointerEvents=1;shadow=0;dashed=0;html=1;strokeColor=none;fillColor=#005F4B;labelPosition=center;verticalLabelPosition=bottom;verticalAlign=top;align=center;outlineConnect=0;shape=mxgraph.veeam2.file;" vertex="1" parent="1">
          <mxGeometry x="1420" y="-5" width="80" height="90" as="geometry" />
        </mxCell>
        <mxCell id="WW5zxsLWMflbh4osE3HO-38" value="XML" style="text;html=1;align=center;verticalAlign=middle;resizable=0;points=[];autosize=1;" vertex="1" parent="1">
          <mxGeometry x="1440" y="-35" width="40" height="20" as="geometry" />
        </mxCell>
        <mxCell id="WW5zxsLWMflbh4osE3HO-39" value="&lt;font color=&quot;#24292e&quot; size=&quot;1&quot;&gt;&lt;span style=&quot;&quot;&gt;log: /bb/beps/logs/sys/reg_frtbsa_daily.frtbsa.20200214.*.mtge.94.log&lt;br&gt;&lt;/span&gt;&lt;/font&gt;" style="text;html=1;strokeColor=none;fillColor=none;align=left;verticalAlign=middle;whiteSpace=wrap;rounded=0;labelBackgroundColor=none;" vertex="1" parent="1">
          <mxGeometry x="1165" y="70" width="295" height="40" as="geometry" />
        </mxCell>
        <mxCell id="WW5zxsLWMflbh4osE3HO-40" value="&lt;font color=&quot;#24292e&quot; size=&quot;1&quot;&gt;&lt;span style=&quot;&quot;&gt;file:&lt;br&gt;/bb/beps/tmp/bval_dist_report*frtbsa.20200214.mtge.94.xml&lt;br&gt;&lt;/span&gt;&lt;/font&gt;" style="text;html=1;strokeColor=none;fillColor=none;align=left;verticalAlign=middle;whiteSpace=wrap;rounded=0;labelBackgroundColor=none;" vertex="1" parent="1">
          <mxGeometry x="1320" y="-70" width="280" height="35" as="geometry" />
        </mxCell>
        <mxCell id="WW5zxsLWMflbh4osE3HO-41" style="edgeStyle=orthogonalEdgeStyle;rounded=0;orthogonalLoop=1;jettySize=auto;html=1;entryX=0;entryY=0.5;entryDx=0;entryDy=0;" edge="1" parent="1" source="WW5zxsLWMflbh4osE3HO-37" target="WW5zxsLWMflbh4osE3HO-45">
          <mxGeometry relative="1" as="geometry" />
        </mxCell>
        <mxCell id="WW5zxsLWMflbh4osE3HO-42" style="edgeStyle=orthogonalEdgeStyle;rounded=0;orthogonalLoop=1;jettySize=auto;html=1;exitX=1;exitY=0.5;exitDx=0;exitDy=0;entryX=0;entryY=0.5;entryDx=0;entryDy=0;" edge="1" parent="1" source="WW5zxsLWMflbh4osE3HO-45" target="WW5zxsLWMflbh4osE3HO-49">
          <mxGeometry relative="1" as="geometry" />
        </mxCell>
        <mxCell id="WW5zxsLWMflbh4osE3HO-43" style="edgeStyle=orthogonalEdgeStyle;rounded=0;orthogonalLoop=1;jettySize=auto;html=1;exitX=1;exitY=0.5;exitDx=0;exitDy=0;entryX=0;entryY=0.5;entryDx=0;entryDy=0;" edge="1" parent="1" source="WW5zxsLWMflbh4osE3HO-45" target="WW5zxsLWMflbh4osE3HO-61">
          <mxGeometry relative="1" as="geometry" />
        </mxCell>
        <mxCell id="WW5zxsLWMflbh4osE3HO-44" style="edgeStyle=orthogonalEdgeStyle;rounded=0;orthogonalLoop=1;jettySize=auto;html=1;exitX=1;exitY=0.5;exitDx=0;exitDy=0;entryX=-0.007;entryY=0.115;entryDx=0;entryDy=0;entryPerimeter=0;" edge="1" parent="1" source="WW5zxsLWMflbh4osE3HO-45" target="WW5zxsLWMflbh4osE3HO-54">
          <mxGeometry relative="1" as="geometry" />
        </mxCell>
        <mxCell id="WW5zxsLWMflbh4osE3HO-45" value="reg_dist_report.tsk" style="rounded=0;whiteSpace=wrap;html=1;" vertex="1" parent="1">
          <mxGeometry x="1590" y="10" width="120" height="60" as="geometry" />
        </mxCell>
        <mxCell id="WW5zxsLWMflbh4osE3HO-46" value="&lt;font color=&quot;#24292e&quot; size=&quot;1&quot;&gt;&lt;span style=&quot;&quot;&gt;log: /bb/beps/logs/sys/reg_frtbsa_bvlh*frtbsa.20200214.mtge.94.log&lt;br&gt;&lt;/span&gt;&lt;/font&gt;" style="text;html=1;strokeColor=none;fillColor=none;align=left;verticalAlign=middle;whiteSpace=wrap;rounded=0;labelBackgroundColor=none;" vertex="1" parent="1">
          <mxGeometry x="1502.5" y="65" width="295" height="40" as="geometry" />
        </mxCell>
        <mxCell id="WW5zxsLWMflbh4osE3HO-47" value="hier1 - 197" style="swimlane;fontStyle=0;childLayout=stackLayout;horizontal=1;startSize=26;fillColor=none;horizontalStack=0;resizeParent=1;resizeParentMax=0;resizeLast=0;collapsible=1;marginBottom=0;" vertex="1" parent="1">
          <mxGeometry x="1825" y="-117.5" width="140" height="130" as="geometry" />
        </mxCell>
        <mxCell id="WW5zxsLWMflbh4osE3HO-48" value="ID, Bucket" style="text;strokeColor=none;fillColor=none;align=left;verticalAlign=top;spacingLeft=4;spacingRight=4;overflow=hidden;rotatable=0;points=[[0,0.5],[1,0.5]];portConstraint=eastwest;" vertex="1" parent="WW5zxsLWMflbh4osE3HO-47">
          <mxGeometry y="26" width="140" height="26" as="geometry" />
        </mxCell>
        <mxCell id="WW5zxsLWMflbh4osE3HO-49" value="ID1, 25" style="text;strokeColor=none;fillColor=none;align=left;verticalAlign=top;spacingLeft=4;spacingRight=4;overflow=hidden;rotatable=0;points=[[0,0.5],[1,0.5]];portConstraint=eastwest;" vertex="1" parent="WW5zxsLWMflbh4osE3HO-47">
          <mxGeometry y="52" width="140" height="26" as="geometry" />
        </mxCell>
        <mxCell id="WW5zxsLWMflbh4osE3HO-50" value="..." style="text;strokeColor=none;fillColor=none;align=left;verticalAlign=top;spacingLeft=4;spacingRight=4;overflow=hidden;rotatable=0;points=[[0,0.5],[1,0.5]];portConstraint=eastwest;" vertex="1" parent="WW5zxsLWMflbh4osE3HO-47">
          <mxGeometry y="78" width="140" height="26" as="geometry" />
        </mxCell>
        <mxCell id="WW5zxsLWMflbh4osE3HO-51" value="ID10000, 12" style="text;strokeColor=none;fillColor=none;align=left;verticalAlign=top;spacingLeft=4;spacingRight=4;overflow=hidden;rotatable=0;points=[[0,0.5],[1,0.5]];portConstraint=eastwest;" vertex="1" parent="WW5zxsLWMflbh4osE3HO-47">
          <mxGeometry y="104" width="140" height="26" as="geometry" />
        </mxCell>
        <mxCell id="WW5zxsLWMflbh4osE3HO-52" value="reg_dist_report* .csv" style="swimlane;fontStyle=0;childLayout=stackLayout;horizontal=1;startSize=26;fillColor=none;horizontalStack=0;resizeParent=1;resizeParentMax=0;resizeLast=0;collapsible=1;marginBottom=0;" vertex="1" parent="1">
          <mxGeometry x="1825" y="220" width="140" height="78" as="geometry">
            <mxRectangle x="1825" y="220" width="50" height="40" as="alternateBounds" />
          </mxGeometry>
        </mxCell>
        <mxCell id="WW5zxsLWMflbh4osE3HO-53" value="197: name1" style="text;strokeColor=none;fillColor=none;align=left;verticalAlign=top;spacingLeft=4;spacingRight=4;overflow=hidden;rotatable=0;points=[[0,0.5],[1,0.5]];portConstraint=eastwest;" vertex="1" parent="WW5zxsLWMflbh4osE3HO-52">
          <mxGeometry y="26" width="140" height="26" as="geometry" />
        </mxCell>
        <mxCell id="WW5zxsLWMflbh4osE3HO-54" value="198: name2" style="text;strokeColor=none;fillColor=none;align=left;verticalAlign=top;spacingLeft=4;spacingRight=4;overflow=hidden;rotatable=0;points=[[0,0.5],[1,0.5]];portConstraint=eastwest;" vertex="1" parent="WW5zxsLWMflbh4osE3HO-52">
          <mxGeometry y="52" width="140" height="26" as="geometry" />
        </mxCell>
        <mxCell id="WW5zxsLWMflbh4osE3HO-59" value="hier2 - 198" style="swimlane;fontStyle=0;childLayout=stackLayout;horizontal=1;startSize=26;fillColor=none;horizontalStack=0;resizeParent=1;resizeParentMax=0;resizeLast=0;collapsible=1;marginBottom=0;" vertex="1" parent="1">
          <mxGeometry x="1825" y="40" width="140" height="130" as="geometry" />
        </mxCell>
        <mxCell id="WW5zxsLWMflbh4osE3HO-60" value="ID, Bucket" style="text;strokeColor=none;fillColor=none;align=left;verticalAlign=top;spacingLeft=4;spacingRight=4;overflow=hidden;rotatable=0;points=[[0,0.5],[1,0.5]];portConstraint=eastwest;" vertex="1" parent="WW5zxsLWMflbh4osE3HO-59">
          <mxGeometry y="26" width="140" height="26" as="geometry" />
        </mxCell>
        <mxCell id="WW5zxsLWMflbh4osE3HO-61" value="ID1, 25" style="text;strokeColor=none;fillColor=none;align=left;verticalAlign=top;spacingLeft=4;spacingRight=4;overflow=hidden;rotatable=0;points=[[0,0.5],[1,0.5]];portConstraint=eastwest;" vertex="1" parent="WW5zxsLWMflbh4osE3HO-59">
          <mxGeometry y="52" width="140" height="26" as="geometry" />
        </mxCell>
        <mxCell id="WW5zxsLWMflbh4osE3HO-62" value="..." style="text;strokeColor=none;fillColor=none;align=left;verticalAlign=top;spacingLeft=4;spacingRight=4;overflow=hidden;rotatable=0;points=[[0,0.5],[1,0.5]];portConstraint=eastwest;" vertex="1" parent="WW5zxsLWMflbh4osE3HO-59">
          <mxGeometry y="78" width="140" height="26" as="geometry" />
        </mxCell>
        <mxCell id="WW5zxsLWMflbh4osE3HO-63" value="ID10000, 12" style="text;strokeColor=none;fillColor=none;align=left;verticalAlign=top;spacingLeft=4;spacingRight=4;overflow=hidden;rotatable=0;points=[[0,0.5],[1,0.5]];portConstraint=eastwest;" vertex="1" parent="WW5zxsLWMflbh4osE3HO-59">
          <mxGeometry y="104" width="140" height="26" as="geometry" />
        </mxCell>
        <mxCell id="WW5zxsLWMflbh4osE3HO-64" value="&lt;font color=&quot;#24292e&quot; size=&quot;1&quot;&gt;&lt;span style=&quot;&quot;&gt;file:&lt;br&gt;/bb/beps/tmp/reg_dist_report.197*frtbsa*20200214*mtge.97.csv&lt;br&gt;&lt;/span&gt;&lt;/font&gt;" style="text;html=1;strokeColor=none;fillColor=none;align=left;verticalAlign=middle;whiteSpace=wrap;rounded=0;labelBackgroundColor=none;" vertex="1" parent="1">
          <mxGeometry x="1780" y="320" width="280" height="35" as="geometry" />
        </mxCell>
        <mxCell id="WW5zxsLWMflbh4osE3HO-65" value="&lt;font color=&quot;#24292e&quot; size=&quot;1&quot;&gt;&lt;span style=&quot;&quot;&gt;file:&lt;br&gt;/bb/beps/tmp/bval_dist_report.197*frtbsa*20200214*mtge.94.txtl&lt;br&gt;&lt;/span&gt;&lt;/font&gt;" style="text;html=1;strokeColor=none;fillColor=none;align=left;verticalAlign=middle;whiteSpace=wrap;rounded=0;labelBackgroundColor=none;" vertex="1" parent="1">
          <mxGeometry x="1750" y="-170" width="280" height="35" as="geometry" />
        </mxCell>
        <mxCell id="WW5zxsLWMflbh4osE3HO-66" value="GU" style="rounded=0;whiteSpace=wrap;html=1;" vertex="1" parent="1">
          <mxGeometry x="2085" y="82.5" width="80" height="45" as="geometry" />
        </mxCell>
        <mxCell id="WW5zxsLWMflbh4osE3HO-67" value="- bbid&lt;br&gt;- yellowkey&lt;br&gt;- [_, _, _, ...] //fields for hier 197&lt;br&gt;- bucketed_hier_197&lt;br&gt;- [_, _, _, ...] //fields for hier 198&lt;br&gt;- bucketed_hier_198" style="text;html=1;strokeColor=none;fillColor=none;align=left;verticalAlign=middle;whiteSpace=wrap;rounded=0;" vertex="1" parent="1">
          <mxGeometry x="2060" y="135" width="220" height="100" as="geometry" />
        </mxCell>
        <mxCell id="WW5zxsLWMflbh4osE3HO-68" style="edgeStyle=orthogonalEdgeStyle;rounded=0;orthogonalLoop=1;jettySize=auto;html=1;exitX=1;exitY=0.5;exitDx=0;exitDy=0;entryX=0;entryY=0.5;entryDx=0;entryDy=0;" edge="1" parent="1" source="WW5zxsLWMflbh4osE3HO-49" target="WW5zxsLWMflbh4osE3HO-66">
          <mxGeometry relative="1" as="geometry" />
        </mxCell>
        <mxCell id="WW5zxsLWMflbh4osE3HO-69" style="edgeStyle=orthogonalEdgeStyle;rounded=0;orthogonalLoop=1;jettySize=auto;html=1;exitX=1;exitY=0.5;exitDx=0;exitDy=0;" edge="1" parent="1" source="WW5zxsLWMflbh4osE3HO-61" target="WW5zxsLWMflbh4osE3HO-66">
          <mxGeometry relative="1" as="geometry" />
        </mxCell>
        <mxCell id="WW5zxsLWMflbh4osE3HO-70" style="edgeStyle=orthogonalEdgeStyle;rounded=0;orthogonalLoop=1;jettySize=auto;html=1;exitX=1;exitY=0.5;exitDx=0;exitDy=0;entryX=0;entryY=0.5;entryDx=0;entryDy=0;" edge="1" parent="1" source="WW5zxsLWMflbh4osE3HO-53" target="WW5zxsLWMflbh4osE3HO-66">
          <mxGeometry relative="1" as="geometry" />
        </mxCell>
      </root>
    </mxGraphModel>
  </diagram>
</mxfile>
